<?xml version="1.0" standalone="no"?>
<!DOCTYPE svg PUBLIC "-//W3C//DTD SVG 20010904//EN"
 "http://www.w3.org/TR/2001/REC-SVG-20010904/DTD/svg10.dtd">
<svg version="1.0" xmlns="http://www.w3.org/2000/svg"
 width="512.000000pt" height="512.000000pt" viewBox="0 0 512.000000 512.000000"
 preserveAspectRatio="xMidYMid meet">

<g transform="translate(0.000000,512.000000) scale(0.100000,-0.100000)"
fill="#000000" stroke="none">
<path d="M2517 5106 c-24 -18 -37 -68 -37 -138 0 -42 -4 -58 -13 -58 -8 0 -41
-14 -75 -30 -107 -54 -177 -158 -188 -282 -5 -53 1 -88 36 -223 l41 -160 -21
-115 c-37 -192 -67 -323 -143 -602 l-72 -268 -65 0 c-97 -1 -140 -14 -177 -54
-51 -55 -52 -91 -8 -226 31 -93 45 -122 75 -153 l38 -37 -109 -388 c-60 -213
-112 -395 -115 -404 -5 -16 -20 -18 -122 -18 -132 0 -165 -12 -202 -72 -29
-47 -25 -83 20 -210 39 -110 72 -161 112 -174 10 -3 18 -13 18 -22 -1 -9 -92
-309 -204 -667 l-203 -650 -217 -3 -216 -2 0 130 0 130 28 6 c187 41 298 149
333 323 16 82 7 253 -21 396 -65 329 -194 561 -339 610 -239 79 -441 -199
-506 -698 -27 -209 -15 -334 42 -439 50 -92 159 -168 265 -186 l43 -8 3 -132
3 -132 -236 0 -236 0 -24 -25 c-32 -31 -32 -69 0 -100 l24 -25 2511 0 2511 0
24 25 c32 31 32 69 0 100 l-24 25 -236 0 -235 0 0 130 0 130 28 6 c110 24 178
60 240 128 29 32 61 81 74 114 21 52 23 72 23 217 -1 182 -21 305 -81 484
-102 305 -250 439 -429 386 -80 -23 -174 -117 -226 -225 -102 -212 -170 -579
-139 -757 30 -179 140 -301 305 -338 l50 -11 3 -132 3 -132 -217 2 -217 3
-203 650 c-112 358 -203 658 -204 667 0 9 8 19 18 22 40 13 73 64 112 174 45
127 49 163 20 210 -37 60 -70 72 -202 72 -102 0 -117 2 -122 18 -3 9 -55 191
-115 404 l-109 388 38 37 c31 32 44 59 75 155 43 135 42 170 -8 224 -37 40
-80 53 -177 54 l-65 0 -72 268 c-72 266 -117 455 -148 628 l-16 90 41 160 c35
134 41 169 36 222 -11 123 -81 228 -188 282 -34 16 -67 30 -75 30 -9 0 -13 16
-13 58 0 103 -25 151 -80 151 -14 0 -33 -6 -43 -13z m140 -357 c53 -26 88 -69
105 -132 12 -45 10 -58 -22 -185 l-35 -137 -145 -3 -146 -3 -33 136 c-38 156
-37 200 8 263 57 78 176 106 268 61z m53 -666 c50 -251 175 -755 207 -840 4
-10 -10 -13 -54 -13 -76 0 -117 -14 -132 -46 -16 -35 -14 -47 10 -78 l20 -26
220 0 c168 0 219 -3 219 -12 0 -7 -12 -48 -26 -90 l-26 -78 -588 0 -588 0 -26
78 c-14 42 -26 83 -26 90 0 9 68 12 305 12 300 0 304 0 325 22 37 40 22 98
-31 117 -18 6 -97 11 -177 11 -113 0 -143 3 -139 13 32 85 157 589 207 840
l11 57 139 0 139 0 11 -57z m354 -1350 c47 -162 216 -766 216 -774 0 -6 -57
-8 -152 -7 l-152 3 -18 110 c-32 195 -118 322 -256 376 -87 35 -217 33 -294
-4 -140 -68 -214 -180 -246 -372 l-18 -110 -152 -3 c-94 -1 -152 1 -152 7 0 7
181 656 216 774 5 16 38 17 504 17 466 0 499 -1 504 -17z m-388 -449 c82 -50
120 -126 139 -281 l7 -53 -261 0 c-214 0 -261 2 -261 14 0 52 35 197 56 233
68 117 210 155 320 87z m935 -531 c-10 -27 -24 -65 -30 -85 l-13 -38 -676 0
-676 0 -23 -22 c-31 -29 -30 -72 2 -103 l24 -25 616 0 c338 0 615 -2 615 -5 0
-4 348 -1124 406 -1307 5 -17 -14 -18 -314 -18 l-319 0 -22 212 c-12 117 -29
244 -36 282 -47 226 -244 422 -475 471 -277 58 -560 -78 -684 -329 -46 -92
-59 -157 -87 -423 l-22 -213 -319 0 c-300 0 -319 1 -314 18 52 162 406 1303
406 1306 0 3 70 6 156 8 150 3 157 4 175 27 26 32 24 67 -6 96 -24 25 -24 25
-234 25 l-209 0 -13 38 c-6 20 -20 58 -30 85 l-19 47 1070 0 1070 0 -19 -47z
m-2964 -162 c145 -89 292 -642 227 -860 -35 -118 -142 -178 -304 -169 -200 12
-281 119 -267 352 20 317 129 625 240 680 42 21 65 20 104 -3z m3934 -4 c76
-50 156 -220 205 -432 24 -102 28 -143 28 -270 1 -136 -1 -154 -21 -192 -61
-114 -225 -164 -384 -117 -70 21 -141 89 -160 154 -29 96 -12 311 41 517 47
181 110 299 185 344 40 25 65 24 106 -4z m-1906 -622 c152 -40 271 -147 325
-294 18 -46 70 -424 70 -503 0 -17 -31 -18 -510 -18 -479 0 -510 1 -510 18 0
79 52 457 70 503 84 227 324 354 555 294z"/>
</g>
</svg>
