<?xml version="1.0" standalone="no"?>
<!DOCTYPE svg PUBLIC "-//W3C//DTD SVG 20010904//EN"
 "http://www.w3.org/TR/2001/REC-SVG-20010904/DTD/svg10.dtd">
<svg version="1.0" xmlns="http://www.w3.org/2000/svg"
 width="1024.000000pt" height="1024.000000pt" viewBox="0 0 1024.000000 1024.000000"
 preserveAspectRatio="xMidYMid meet">

<g transform="translate(0.000000,1024.000000) scale(0.100000,-0.100000)"
fill="#000000" stroke="none">
<path d="M0 5120 l0 -5120 5120 0 5120 0 0 5120 0 5120 -5120 0 -5120 0 0
-5120z m7780 2874 c228 -64 398 -240 445 -461 12 -56 15 -199 15 -791 0 -790
2 -763 -59 -814 -71 -60 -184 -39 -239 45 l-27 41 -5 437 c-5 403 -6 440 -23
456 -16 17 -57 18 -560 23 l-542 5 -111 66 c-137 83 -245 137 -384 194 -139
57 -382 138 -483 160 -65 14 -77 20 -71 34 38 90 8 192 -73 247 -82 55 -205
31 -260 -49 -26 -37 -45 -114 -36 -145 l5 -22 -169 0 -169 0 4 34 c15 127
-116 239 -240 206 -63 -18 -98 -47 -125 -108 -25 -54 -27 -83 -8 -162 6 -24 3
-26 -87 -48 -285 -72 -633 -211 -835 -334 -49 -29 -101 -59 -116 -65 -21 -10
-141 -13 -463 -14 -422 -1 -489 -5 -506 -31 -4 -7 -8 -162 -8 -344 0 -375 -3
-398 -70 -458 -67 -60 -155 -61 -215 -1 -19 19 -37 49 -40 67 -3 18 -5 335 -3
703 l3 670 27 80 c58 168 197 300 393 372 47 17 121 18 1375 23 729 3 1838 4
2465 2 992 -2 1147 -5 1195 -18z m-2245 -1029 c294 -45 539 -129 881 -304 275
-141 545 -320 768 -511 213 -182 485 -471 595 -633 102 -150 121 -268 64 -389
-69 -146 -192 -298 -433 -533 -214 -210 -511 -447 -753 -601 -172 -109 -162
-89 -81 -177 75 -83 64 -79 179 -58 69 13 157 1 216 -29 54 -28 118 -90 488
-470 233 -239 345 -362 365 -399 56 -104 68 -202 41 -319 -51 -215 -221 -344
-435 -329 -101 7 -173 36 -247 99 -107 92 -757 767 -785 816 -15 25 -32 67
-37 92 -13 62 2 167 33 229 l25 48 -123 122 -122 122 -73 -30 c-303 -125 -657
-190 -971 -178 -586 24 -1141 251 -1730 710 -370 289 -709 652 -822 882 -37
75 -39 85 -35 150 3 49 12 87 31 128 110 230 409 556 786 857 452 360 1006
623 1475 700 189 32 510 34 700 5z m2630 -2460 c21 -15 46 -47 57 -71 18 -42
19 -69 16 -546 -3 -485 -4 -505 -24 -548 -23 -51 -85 -110 -114 -110 -11 0
-55 37 -104 88 l-85 87 -1 511 0 511 23 34 c12 18 38 44 57 57 48 33 123 27
175 -13z m-5615 -44 c20 -11 47 -38 65 -66 l30 -48 5 -936 5 -936 23 -50 c13
-27 37 -65 55 -84 60 -63 182 -102 215 -69 9 9 12 112 12 401 l0 389 29 29 29
29 131 0 c129 0 131 0 160 -27 l30 -28 3 -386 c3 -306 6 -390 17 -403 11 -13
35 -16 135 -16 82 0 126 4 134 12 9 9 12 160 12 618 0 727 -7 691 125 610 36
-22 110 -63 165 -90 l100 -50 0 -538 c0 -405 3 -541 12 -550 8 -8 53 -12 137
-12 102 0 128 3 143 17 17 15 18 41 18 409 l0 392 26 31 26 31 133 0 c127 0
135 -1 162 -24 25 -21 28 -33 34 -107 4 -46 8 -228 8 -404 1 -236 4 -324 13
-333 8 -8 53 -12 135 -12 111 0 123 2 133 19 6 12 10 117 10 271 l0 252 29 29
29 29 132 0 c72 0 140 -5 151 -10 44 -24 49 -54 49 -314 0 -209 2 -247 16
-260 21 -21 255 -24 272 -3 7 9 12 122 14 330 l3 317 28 27 c25 25 36 28 125
35 110 7 85 20 188 -99 l44 -52 0 -268 c0 -200 3 -273 13 -285 10 -14 50 -17
272 -21 l260 -4 63 -69 c35 -38 65 -79 69 -92 14 -58 -32 -139 -94 -163 -14
-5 -811 -9 -1946 -9 -2130 0 -1984 -4 -2119 67 -79 41 -186 148 -231 231 -15
28 -36 85 -47 128 -19 74 -20 114 -20 1051 0 1024 0 1015 43 1052 28 23 90 41
122 35 17 -3 46 -14 65 -23z"/>
<path d="M2883 7661 c-83 -21 -143 -106 -143 -203 0 -65 24 -107 85 -150 61
-43 130 -48 197 -15 78 39 103 81 103 173 0 64 -3 77 -30 115 -47 67 -134 99
-212 80z"/>
<path d="M3503 7661 c-48 -12 -98 -55 -122 -104 -95 -196 147 -377 308 -231
51 45 64 81 59 153 -9 125 -126 212 -245 182z"/>
<path d="M4130 7659 c-46 -18 -92 -61 -111 -103 -78 -172 96 -348 261 -263
127 65 148 220 43 319 -53 51 -133 71 -193 47z"/>
<path d="M6213 7661 c-71 -18 -124 -78 -142 -162 -17 -76 16 -151 87 -200 29
-19 48 -24 102 -24 57 0 74 5 115 30 60 37 89 90 89 160 0 126 -129 226 -251
196z"/>
<path d="M6980 7654 c-82 -36 -124 -106 -118 -200 5 -76 38 -126 108 -161 83
-43 182 -19 243 59 117 146 -61 377 -233 302z"/>
<path d="M7587 7655 c-79 -27 -126 -101 -127 -193 0 -62 16 -98 64 -140 70
-62 169 -67 244 -12 119 86 103 268 -30 334 -58 29 -94 32 -151 11z"/>
<path d="M5015 6589 c-546 -74 -989 -468 -1131 -1005 -35 -135 -45 -403 -20
-539 51 -271 189 -538 375 -724 182 -181 395 -293 671 -352 140 -30 429 -33
560 -5 502 107 855 420 1010 896 52 157 65 241 64 405 -1 213 -37 369 -134
573 -182 384 -524 648 -955 737 -95 20 -341 28 -440 14z m308 -430 c255 -37
480 -180 626 -399 100 -150 141 -296 141 -505 0 -201 -54 -367 -171 -525 -193
-262 -488 -387 -829 -351 -122 13 -197 33 -289 77 -230 108 -409 324 -476 574
-26 97 -32 316 -11 420 32 156 101 294 212 422 191 220 499 331 797 287z"/>
<path d="M5127 5853 c-4 -6 7 -22 23 -38 47 -45 74 -119 74 -205 1 -66 -4 -85
-32 -143 -54 -110 -155 -176 -268 -177 -94 0 -149 24 -222 97 -35 35 -65 63
-67 63 -14 0 -27 -131 -23 -225 6 -136 35 -218 110 -318 95 -127 211 -198 370
-224 217 -37 422 35 553 195 95 115 139 236 139 387 0 254 -154 477 -389 565
-66 24 -257 41 -268 23z"/>
</g>
</svg>
